<svg version="1.1" id="Layer_1" xmlns="http://www.w3.org/2000/svg" xmlns:xlink="http://www.w3.org/1999/xlink" x="0px" y="0px"
	 width="100%" viewBox="0 0 992 288" enable-background="new 0 0 992 288" xml:space="preserve">
<path fill="#6edcfa" opacity="1.000000" stroke="none" 
	d="
M1.000000,278.428467 
	C5.073546,274.944336 10.126450,275.331909 14.738193,274.365326 
	C17.865175,273.709930 19.490269,276.178345 19.397434,279.345276 
	C19.310143,282.323151 19.037682,285.299530 19.919426,288.614532 
	C16.307091,289.000000 12.614182,289.000000 8.317926,288.703491 
	C5.997995,286.143250 2.960227,285.892517 1.000000,284.000000 
	C1.000000,282.285645 1.000000,280.571289 1.000000,278.428467 
z"/>
<path fill="#6edcfa" opacity="1.000000" stroke="none" 
	d="
M22.428463,289.000000 
	C21.042919,287.059296 19.922955,285.092224 21.605249,283.019623 
	C23.753206,280.373322 26.737999,279.339386 29.458324,281.320007 
	C32.925407,283.844391 29.761656,286.178619 28.191864,288.711670 
	C26.285643,289.000000 24.571283,289.000000 22.428463,289.000000 
z"/>
<path fill="#6edcfa" opacity="1.000000" stroke="none" 
	d="
M85.274673,267.419312 
	C87.981651,269.447357 87.410110,271.349609 85.648865,273.106476 
	C82.848755,275.899628 79.960678,275.029358 77.275665,272.908936 
	C72.301697,278.623108 70.262314,278.520355 65.635460,272.644226 
	C64.726166,271.489410 63.621044,270.448456 62.463318,269.536469 
	C56.933353,265.180298 56.939926,262.554169 62.858944,258.271820 
	C61.150219,254.966980 60.202557,251.516159 63.942745,248.744980 
	C65.411644,247.656647 67.109306,247.212234 68.462288,248.656754 
	C71.624680,252.032974 69.096558,255.099579 67.522003,258.171967 
	C68.985809,259.484894 70.326645,258.690796 71.999695,258.215118 
	C69.778130,252.426605 71.073296,248.416672 77.874016,247.978302 
	C79.474701,247.875122 80.616150,249.439560 80.716049,250.996704 
	C80.974861,255.030869 78.300705,257.233368 74.578194,259.073547 
	C77.971283,262.089752 75.967705,265.711029 76.304924,269.797150 
	C79.065308,267.594299 81.643402,265.748047 85.274673,267.419312 
z"/>
<path fill="#6edcfa" opacity="1.000000" stroke="none" 
	d="
M929.985657,46.987465 
	C933.633362,49.604931 936.244385,59.654781 934.275391,63.498608 
	C932.678223,66.616524 929.227844,67.171234 926.287781,64.585899 
	C924.427551,62.950081 922.886414,61.042667 920.641663,59.752697 
	C914.580383,56.269474 914.416687,53.519894 919.822876,48.729309 
	C917.554749,45.599075 916.274414,42.280373 919.511414,38.985451 
	C920.626770,37.850063 922.223999,37.266029 923.562927,38.472500 
	C927.071716,41.634274 925.024719,45.054428 923.559387,48.365631 
	C925.909912,49.324585 927.543945,47.717243 929.715942,47.144428 
	C930.021973,47.008804 929.985657,46.987465 929.985657,46.987465 
z"/>
<path fill="#6edcfa" opacity="1.000000" stroke="none" 
	d="
M89.065758,221.239777 
	C86.372955,221.097610 84.977463,219.608887 84.184250,217.746887 
	C83.109299,215.223541 81.537918,213.197540 79.489571,211.429016 
	C77.521805,209.730057 76.902199,207.468704 77.933861,205.116837 
	C79.061172,202.546890 81.348061,201.623718 84.088234,201.868195 
	C86.729996,202.103928 89.372963,202.343552 92.005119,202.665512 
	C95.895744,203.141373 97.565277,205.580917 96.365868,209.227997 
	C95.537170,211.747879 94.584610,214.195572 94.164322,216.856812 
	C93.768707,219.361877 92.190704,221.015305 89.065758,221.239777 
z"/>
<path fill="#6edcfa" opacity="1.000000" stroke="none" 
	d="
M829.980835,168.976700 
	C831.812012,170.772812 834.171143,170.701859 836.496948,170.942215 
	C841.537598,171.463135 843.169556,174.363052 841.136841,178.828171 
	C840.316284,180.630569 839.594971,182.482162 838.910461,184.341537 
	C837.937317,186.985046 836.614929,189.164871 833.385864,189.276459 
	C830.023254,189.392700 828.645813,187.130356 827.943787,184.437149 
	C827.424316,182.444321 826.569519,180.781296 825.334473,179.152679 
	C821.176086,173.669266 822.352722,170.815536 829.652832,169.092911 
	C830.003296,169.000183 829.980835,168.976700 829.980835,168.976700 
z"/>
<path fill="#6edcfa" opacity="1.000000" stroke="none" 
	d="
M181.987640,153.983017 
	C183.524460,155.420517 185.574493,155.650742 187.447662,156.288895 
	C189.110306,156.855331 190.426926,157.797760 190.983185,159.524796 
	C191.967651,162.581253 184.928360,173.354950 181.778030,173.591354 
	C178.805435,173.814392 177.012375,172.235245 176.372620,169.489120 
	C175.654770,166.407761 174.881592,163.431061 173.121246,160.697556 
	C172.001480,158.958740 171.988922,156.793152 173.496140,155.097214 
	C175.705475,152.611191 178.458542,152.785858 181.654510,153.921478 
	C182.010406,154.002777 181.987640,153.983017 181.987640,153.983017 
z"/>
<path fill="#6edcfa" opacity="1.000000" stroke="none" 
	d="
M284.979431,128.965561 
	C285.985291,131.371979 288.412506,131.940582 290.346344,133.173859 
	C294.184052,135.621323 294.450195,138.779770 290.902588,141.606400 
	C289.185272,142.974716 287.693695,144.449265 286.373260,146.184692 
	C284.893005,148.130142 282.978394,149.531967 280.378296,148.719070 
	C277.613647,147.854721 276.608093,145.707977 276.674622,142.903564 
	C276.725616,140.753784 276.852478,138.614716 276.007324,136.506027 
	C274.992279,133.973480 274.327179,131.299530 276.799835,129.137161 
	C279.145355,127.085915 281.712738,127.552399 284.634827,128.883575 
	C285.000458,128.993378 284.979431,128.965561 284.979431,128.965561 
z"/>
<path fill="#6edcfa" opacity="1.000000" stroke="none" 
	d="
M977.787476,27.555119 
	C979.161255,27.279083 980.136780,27.066317 981.107849,26.834597 
	C988.442688,25.084227 989.657471,26.065924 989.675964,33.502274 
	C989.680481,35.314270 990.121521,37.121181 990.274292,38.937794 
	C990.470093,41.267288 989.841675,43.209644 987.536621,44.307945 
	C985.448547,45.302906 983.493469,44.817997 982.006592,43.350746 
	C979.614258,40.990028 977.025208,39.041946 974.012512,37.517696 
	C971.932922,36.465500 970.980835,34.442410 971.454712,32.039539 
	C972.089050,28.822844 974.678833,28.110250 977.787476,27.555119 
z"/>
<path fill="#6edcfa" opacity="1.000000" stroke="none" 
	d="
M923.899353,122.738922 
	C919.854309,126.448997 917.300110,126.448235 914.721191,122.658112 
	C913.187866,120.404648 911.469299,118.565659 909.140137,117.145607 
	C906.915222,115.789116 906.193359,113.580925 906.882141,111.080132 
	C907.533813,108.714111 909.255737,107.663055 911.686157,107.497070 
	C914.661926,107.293846 917.621216,106.815033 920.598083,106.670868 
	C923.613708,106.524841 925.426941,108.141350 925.274170,111.168030 
	C925.084534,114.925407 924.500916,118.662903 923.899353,122.738922 
z"/>
<path fill="#6edcfa" opacity="1.000000" stroke="none" 
	d="
M737.223877,226.740479 
	C732.160034,228.039490 729.896606,225.801163 729.747131,221.318390 
	C729.661133,218.739746 728.962219,216.478470 727.799377,214.253082 
	C726.726074,212.199188 726.526978,210.123596 728.259705,208.283661 
	C730.093079,206.336838 732.332458,206.380844 734.672546,207.141693 
	C734.826782,207.191818 734.958862,207.306366 735.109863,207.370667 
	C750.012512,213.714127 746.946655,214.001434 737.223877,226.740479 
z"/>
<path fill="#6edcfa" opacity="1.000000" stroke="none" 
	d="
M392.982208,132.964920 
	C393.135895,135.533768 394.942139,137.038879 396.550140,138.740860 
	C399.939240,142.328064 399.167786,145.464279 394.632050,147.590332 
	C392.693207,148.499146 390.862732,149.656265 389.041473,150.794174 
	C387.045624,152.041214 385.066101,152.454819 382.991058,151.060181 
	C380.726776,149.538376 380.336853,147.327789 380.956238,144.897629 
	C381.526123,142.661713 382.588043,140.601227 382.671814,138.182617 
	C382.933807,130.620468 385.687958,129.104828 392.667847,132.834366 
	C392.995300,132.989578 392.982208,132.964920 392.982208,132.964920 
z"/>
<path fill="#6edcfa" opacity="1.000000" stroke="none" 
	d="
M631.774780,240.906601 
	C625.109375,241.852448 623.152283,239.839157 624.386536,233.653839 
	C624.855408,231.303818 624.609802,229.053177 624.179016,226.741730 
	C623.742920,224.401276 624.592651,222.344147 626.686035,221.230042 
	C628.714600,220.150406 630.868713,220.365234 632.754456,221.874863 
	C632.884094,221.978653 633.044128,222.066055 633.130249,222.199585 
	C635.446167,225.790787 642.275879,226.156418 641.094604,231.961014 
	C640.183899,236.435684 634.507507,237.145859 631.774780,240.906601 
z"/>
<path fill="#6edcfa" opacity="1.000000" stroke="none" 
	d="
M523.057495,225.158752 
	C518.200867,223.578644 517.877319,220.448303 519.605713,216.737930 
	C520.742004,214.298492 521.689392,211.903900 521.791748,209.140945 
	C521.879700,206.766312 523.274292,205.057404 525.717041,204.621948 
	C528.274597,204.166046 530.331177,204.975006 531.414856,207.526840 
	C532.405090,209.858429 533.926880,211.794342 535.587280,213.696335 
	C537.926758,216.376129 537.629639,219.567169 534.471619,220.712769 
	C530.730469,222.069885 527.530701,224.732300 523.057495,225.158752 
z"/>
<path fill="#6edcfa" opacity="1.000000" stroke="none" 
	d="
M492.361450,161.685455 
	C493.807617,164.150497 494.975372,166.346390 496.323456,168.425369 
	C497.492310,170.227997 498.028961,172.048111 497.057739,174.043350 
	C496.056427,176.100449 484.877319,180.364822 482.790009,179.475113 
	C479.172974,177.933411 478.991241,175.018143 480.413239,172.023743 
	C481.637512,169.445709 482.458374,166.858337 483.060394,164.069534 
	C484.179749,158.884476 487.667114,157.960892 492.361450,161.685455 
z"/>
<path fill="#6edcfa" opacity="1.000000" stroke="none" 
	d="
M433.424988,174.633270 
	C435.407440,177.511917 437.113953,180.149704 438.819153,182.788361 
	C438.909180,182.927689 438.992706,183.071823 439.070801,183.218216 
	C440.343262,185.603867 440.227692,188.592331 437.840637,189.234161 
	C433.263580,190.464874 429.753357,196.145462 424.300781,193.205338 
	C421.237549,191.553574 421.818207,188.389481 423.266815,185.703262 
	C424.407623,183.587753 424.680664,181.334869 425.074463,179.038696 
	C425.940735,173.987579 427.855042,172.955719 433.424988,174.633270 
z"/>
<path fill="#6edcfa" opacity="1.000000" stroke="none" 
	d="
M233.383240,179.754761 
	C233.074066,178.905243 232.896088,178.439163 232.684250,177.989014 
	C231.354843,175.164047 229.257141,172.282166 232.295593,169.373367 
	C235.346497,166.452667 238.073151,168.560150 240.796265,170.223877 
	C241.778351,170.823914 242.908325,171.177933 243.954407,171.678528 
	C244.698395,172.034607 245.503571,172.340607 246.127625,172.855423 
	C248.334763,174.676117 249.450745,177.478897 247.287079,179.308060 
	C243.761002,182.289047 243.989243,189.885742 237.136276,188.491791 
	C232.885040,187.627075 233.848007,183.336212 233.383240,179.754761 
z"/>
<path fill="#6edcfa" opacity="1.000000" stroke="none" 
	d="
M672.409058,192.624695 
	C671.780640,189.678497 672.531433,187.574966 674.821106,186.305862 
	C677.064575,185.062347 678.854858,186.300400 680.684509,187.627396 
	C691.309387,195.333252 691.330688,195.313309 682.367065,205.021866 
	C680.931335,206.576981 679.206299,207.474365 677.048645,206.766937 
	C674.924988,206.070648 673.825012,204.470947 673.743347,202.284454 
	C673.626221,199.150742 673.869568,195.982178 672.409058,192.624695 
z"/>
<path fill="#6edcfa" opacity="1.000000" stroke="none" 
	d="
M863.978821,116.968842 
	C866.522522,120.037079 866.539185,130.479645 864.005371,133.592606 
	C861.867859,136.218643 857.831543,136.070847 856.030457,132.873047 
	C854.382324,129.946838 852.590149,127.271446 850.190247,124.919022 
	C848.506653,123.268585 848.184204,121.054085 849.222595,118.923813 
	C850.243835,116.828949 852.307373,116.433380 854.362061,116.753586 
	C857.332031,117.216415 860.277527,117.434303 863.636475,117.002716 
	C864.014771,116.997734 863.978821,116.968842 863.978821,116.968842 
z"/>
<path fill="#6edcfa" opacity="1.000000" stroke="none" 
	d="
M141.926102,214.154526 
	C141.067001,212.893921 140.371628,211.969849 139.701904,211.027557 
	C138.189880,208.900101 137.119064,206.710617 139.016037,204.246017 
	C140.873383,201.832901 143.378098,201.839676 145.709915,203.044983 
	C148.880371,204.683807 153.304245,203.372269 155.513412,206.997375 
	C157.826996,210.793869 153.783112,213.357071 153.289627,216.648605 
	C152.874283,219.418854 151.819260,221.991470 148.566940,222.137741 
	C145.099014,222.293716 143.891876,219.565887 142.912018,216.821793 
	C142.634552,216.044724 142.371277,215.262604 141.926102,214.154526 
z"/>
<path fill="#6edcfa" opacity="1.000000" stroke="none" 
	d="
M782.455383,168.285950 
	C782.088562,173.091263 779.342102,176.570526 777.215576,180.177765 
	C775.329834,183.376755 770.545044,182.573975 769.377625,178.841248 
	C768.189331,175.041901 766.576721,171.479904 765.148010,167.809967 
	C763.955811,164.747437 765.561462,161.410263 768.947449,161.948227 
	C773.754578,162.711975 779.145935,163.197723 782.455383,168.285950 
z"/>
<path fill="#6edcfa" opacity="1.000000" stroke="none" 
	d="
M333.648499,177.539810 
	C330.264252,177.664047 327.836029,175.874313 328.482513,173.216202 
	C329.777161,167.893143 325.975525,161.571365 331.113770,157.243393 
	C333.647491,155.109222 338.903931,158.417877 343.113861,164.118881 
	C344.897919,166.534851 344.778503,169.216858 342.619659,170.831253 
	C339.717102,173.001816 337.513947,176.102142 333.648499,177.539810 
z"/>
<path fill="#6edcfa" opacity="1.000000" stroke="none" 
	d="
M584.198425,185.460327 
	C586.817566,188.247482 589.252441,190.726822 591.335938,193.472763 
	C593.235168,195.975952 592.641296,198.602066 590.356873,200.557312 
	C583.757568,206.205750 579.605347,207.384659 577.027649,204.582031 
	C574.672607,202.021484 577.393921,187.033615 580.509399,185.403488 
	C581.605896,184.829758 582.722351,184.779358 584.198425,185.460327 
z"/>
<path fill="#6edcfa" opacity="1.000000" stroke="none" 
	d="
M984.083984,15.619968 
	C986.539001,13.799275 988.966980,12.776940 990.832886,15.479057 
	C992.693665,18.173695 991.457458,20.973330 989.726135,23.281513 
	C986.986572,26.933659 984.205261,24.311861 981.358643,22.827993 
	C979.546997,25.015284 978.068604,28.778065 974.491394,26.116148 
	C971.636230,23.991482 972.073669,20.778044 974.020752,18.129396 
	C976.510498,14.742521 979.110840,16.282539 981.430359,18.731640 
	C982.361755,17.610836 983.093384,16.730398 984.083984,15.619968 
z"/>
<path fill="#6edcfa" opacity="1.000000" stroke="none" 
	d="
M642.671265,228.631454 
	C640.908386,225.808487 641.176514,223.513657 643.739258,221.933456 
	C646.609131,220.163864 649.476013,220.602188 651.959290,222.812988 
	C653.447510,224.137833 653.386230,225.872665 652.094177,227.230057 
	C649.503967,229.950989 646.555359,231.500519 642.671265,228.631454 
z"/>
<path fill="#6edcfa" opacity="1.000000" stroke="none" 
	d="
M92.619629,198.149963 
	C92.749855,196.384949 93.344795,195.171844 94.446289,194.356705 
	C96.583328,192.775238 98.767799,191.043976 101.682816,192.449890 
	C103.536362,193.343857 103.712624,195.078949 103.223579,196.740433 
	C102.377563,199.614624 100.630661,201.841873 97.461830,202.258423 
	C94.747490,202.615234 92.976189,201.381134 92.619629,198.149963 
z"/>
<path fill="#6edcfa" opacity="1.000000" stroke="none" 
	d="
M926.585693,108.769188 
	C926.463806,107.211266 926.587097,106.040359 927.433716,105.130707 
	C929.429749,102.985802 931.701660,101.280685 934.840576,102.140152 
	C936.412659,102.570610 937.332764,103.903473 937.158997,105.578865 
	C936.835510,108.697632 934.860474,110.778198 932.143799,111.892647 
	C929.542236,112.959885 927.667542,111.681328 926.585693,108.769188 
z"/>
<path fill="#6edcfa" opacity="1.000000" stroke="none" 
	d="
M193.356888,160.233795 
	C194.270889,159.501144 194.911636,158.897491 195.666336,158.667084 
	C198.538284,157.790359 201.300568,157.864166 203.224411,160.572174 
	C204.376221,162.193497 203.756226,163.841324 202.399139,165.016647 
	C200.317261,166.819656 197.867325,168.084595 195.118042,166.799103 
	C192.396866,165.526749 191.892929,163.227158 193.356888,160.233795 
z"/>
<path fill="#6edcfa" opacity="1.000000" stroke="none" 
	d="
M296.620972,127.242691 
	C297.656647,127.011757 298.316406,126.813225 298.965057,126.844521 
	C301.596985,126.971481 304.292084,127.601959 304.528168,130.648163 
	C304.755646,133.583267 302.159943,134.803162 299.779327,135.676498 
	C297.057526,136.674988 294.801636,135.826019 293.518646,133.233383 
	C292.069214,130.304291 293.634857,128.545395 296.620972,127.242691 
z"/>
<path fill="#6edcfa" opacity="1.000000" stroke="none" 
	d="
M193.733704,157.371124 
	C190.734848,157.380600 189.391144,155.743637 189.105667,153.421005 
	C188.827881,151.160858 190.439407,149.772583 192.297134,148.851303 
	C194.433212,147.791992 196.723724,147.070984 198.852570,148.744141 
	C201.013138,150.442215 200.569443,152.530197 199.127991,154.436020 
	C197.890320,156.072418 196.143082,157.017380 193.733704,157.371124 
z"/>
<path fill="#6edcfa" opacity="1.000000" stroke="none" 
	d="
M928.787598,99.562485 
	C928.378418,100.713867 928.182007,101.554550 927.741577,102.238007 
	C926.267761,104.525124 924.224792,105.961357 921.468994,104.884338 
	C919.370056,104.064079 918.592590,102.000694 919.062073,99.923363 
	C919.742065,96.914719 921.765015,94.935562 924.954224,94.743790 
	C927.943665,94.564034 929.072754,96.371597 928.787598,99.562485 
z"/>
<path fill="#6edcfa" opacity="1.000000" stroke="none" 
	d="
M546.430298,223.723450 
	C547.659180,227.144501 545.823853,228.501190 543.315796,229.037109 
	C540.474121,229.644272 537.991150,228.623154 536.381042,226.159180 
	C535.285889,224.483307 535.314636,222.586197 536.822266,221.123383 
	C539.016785,218.994141 541.451660,219.699402 543.714050,221.032593 
	C544.685242,221.604904 545.416870,222.583633 546.430298,223.723450 
z"/>
<path fill="#6edcfa" opacity="1.000000" stroke="none" 
	d="
M854.526733,172.316238 
	C855.518494,177.538620 852.026794,178.945084 848.465637,179.917984 
	C846.552124,180.440750 844.982361,179.110901 844.149170,177.314682 
	C843.282959,175.447113 843.703003,173.669891 845.262329,172.399643 
	C848.118713,170.072830 851.179138,169.798477 854.526733,172.316238 
z"/>
<path fill="#6edcfa" opacity="1.000000" stroke="none" 
	d="
M303.046448,145.294495 
	C301.725769,145.746338 300.787628,146.146835 299.819916,146.239655 
	C297.043549,146.505966 294.879181,145.483078 293.980011,142.717087 
	C293.320984,140.689697 294.284515,139.055054 296.069641,138.163361 
	C298.827545,136.785767 301.606598,136.934982 303.876556,139.185287 
	C305.925232,141.216248 305.704010,143.295700 303.046448,145.294495 
z"/>
<path fill="#6edcfa" opacity="1.000000" stroke="none" 
	d="
M28.978512,277.090332 
	C26.731497,279.274048 24.522217,280.100159 22.047293,278.392059 
	C20.534477,277.347961 20.090588,275.689728 20.541708,273.975891 
	C21.256769,271.259308 23.392366,270.045593 25.939934,269.443573 
	C27.676039,269.033295 29.252703,269.292114 30.299753,270.920563 
	C31.760452,273.192413 30.495266,274.999664 28.978512,277.090332 
z"/>
<path fill="#6edcfa" opacity="1.000000" stroke="none" 
	d="
M98.337387,206.110626 
	C98.748947,205.009125 98.934402,204.094070 99.488571,203.565735 
	C101.904022,201.262909 104.833443,200.966751 107.781105,202.178909 
	C109.346992,202.822861 109.641647,204.549164 109.145721,206.060928 
	C108.237511,208.829453 106.072113,210.547501 103.306862,210.816849 
	C100.476830,211.092529 98.642525,209.447968 98.337387,206.110626 
z"/>
<path fill="#6edcfa" opacity="1.000000" stroke="none" 
	d="
M401.946167,143.328674 
	C399.964935,141.626099 399.072479,139.902756 400.258270,137.798447 
	C401.483612,135.623886 403.499908,135.204178 405.857941,135.549606 
	C408.130554,135.882553 410.255463,136.582748 411.001923,138.883499 
	C411.935364,141.760544 410.058899,143.224625 407.593048,143.973755 
	C405.813416,144.514404 403.983032,144.603317 401.946167,143.328674 
z"/>
<path fill="#6edcfa" opacity="1.000000" stroke="none" 
	d="
M401.447083,154.120697 
	C398.513184,152.808868 397.081757,150.913055 397.946411,148.079803 
	C398.626007,145.852829 400.631775,145.251862 402.719788,145.412796 
	C405.601837,145.634933 408.199585,147.223068 408.551880,149.938644 
	C409.242279,155.259888 405.050079,154.235718 401.447083,154.120697 
z"/>
<path fill="#6edcfa" opacity="1.000000" stroke="none" 
	d="
M14.734013,272.202393 
	C14.158163,271.769196 13.886650,271.562042 13.709704,271.292786 
	C11.656555,268.168488 12.908837,265.654388 15.323982,263.510101 
	C16.832388,262.170929 18.659184,261.082520 20.665756,262.434021 
	C23.043472,264.035522 22.676437,266.490051 21.798941,268.645325 
	C20.623291,271.532898 18.895432,273.979279 14.734013,272.202393 
z"/>
<path fill="#6edcfa" opacity="1.000000" stroke="none" 
	d="
M842.055359,161.955414 
	C844.916443,160.688034 847.599426,160.402557 848.761963,163.274170 
	C850.156677,166.719040 847.447998,168.769104 844.966187,170.428482 
	C842.869568,171.830353 840.654053,171.347504 839.395142,169.208466 
	C837.619324,166.191101 839.065979,163.892349 842.055359,161.955414 
z"/>
<path fill="#6edcfa" opacity="1.000000" stroke="none" 
	d="
M869.759460,116.789627 
	C872.534973,115.285065 875.131165,114.317291 877.401245,116.612114 
	C879.094849,118.324249 878.337891,120.375137 877.042175,122.038528 
	C875.115845,124.511520 872.580261,125.879578 869.741821,123.802513 
	C867.155151,121.909706 867.022095,119.396538 869.759460,116.789627 
z"/>
<path fill="#6edcfa" opacity="1.000000" stroke="none" 
	d="
M748.542358,202.695175 
	C751.487183,202.439240 754.414673,202.315491 754.701782,205.626190 
	C754.980652,208.841431 752.537170,210.606888 749.588806,211.412369 
	C747.045959,212.107071 744.777344,211.526749 743.989136,208.835602 
	C742.971802,205.362457 745.160217,203.676514 748.542358,202.695175 
z"/>
<path fill="#6edcfa" opacity="1.000000" stroke="none" 
	d="
M653.341919,235.328674 
	C652.023010,240.084045 646.853027,241.878387 643.456299,239.159454 
	C642.191589,238.147110 641.576782,236.876007 641.896179,235.259796 
	C642.252502,233.456573 643.446655,232.293716 645.154663,231.916489 
	C648.460022,231.186478 651.398743,231.727097 653.341919,235.328674 
z"/>
<path fill="#6edcfa" opacity="1.000000" stroke="none" 
	d="
M538.359497,215.455582 
	C537.662781,212.229507 539.312927,210.728210 541.710571,210.014511 
	C544.332703,209.234009 546.758850,210.253113 548.343933,212.234970 
	C550.290955,214.669174 549.505310,216.971161 546.640930,218.144379 
	C543.428345,219.460236 540.513489,219.042374 538.359497,215.455582 
z"/>
<path fill="#6edcfa" opacity="1.000000" stroke="none" 
	d="
M930.041382,47.017838 
	C927.124939,44.745350 925.449158,42.096615 928.021790,38.559738 
	C929.575439,36.423710 931.682190,34.778358 934.365112,36.359402 
	C936.747681,37.763435 936.537109,40.215134 935.769836,42.585899 
	C934.962708,45.079845 933.133789,46.295094 930.327576,46.865280 
	C929.985657,46.987465 930.021973,47.008804 930.041382,47.017838 
z"/>
<path fill="#6edcfa" opacity="1.000000" stroke="none" 
	d="
M785.223999,173.730682 
	C783.251038,171.026962 783.219360,168.738785 785.825073,167.025803 
	C788.421265,165.319138 791.145203,165.263779 793.621338,167.369797 
	C795.132568,168.655045 795.218018,170.299423 794.015625,171.780533 
	C791.764343,174.553680 789.158264,176.398529 785.223999,173.730682 
z"/>
<path fill="#6edcfa" opacity="1.000000" stroke="none" 
	d="
M443.096375,180.091934 
	C444.348999,179.659668 445.333069,179.170349 446.232025,179.295013 
	C448.976685,179.675613 451.433044,180.777069 452.009521,183.822418 
	C452.361298,185.680725 451.032684,186.860306 449.426025,187.595535 
	C446.747345,188.821350 444.257660,188.548019 442.202820,186.355606 
	C440.168457,184.184967 440.934723,182.169434 443.096375,180.091934 
z"/>
<path fill="#6edcfa" opacity="1.000000" stroke="none" 
	d="
M864.035034,117.008774 
	C862.500000,115.723854 861.059326,114.390976 861.529541,112.043304 
	C862.164795,108.871971 864.147278,107.085228 867.278931,106.869194 
	C869.591370,106.709671 871.276733,108.137070 871.104614,110.432610 
	C870.824097,114.174423 869.277161,117.149681 864.371094,117.006783 
	C863.978821,116.968842 864.014771,116.997734 864.035034,117.008774 
z"/>
<path fill="#6edcfa" opacity="1.000000" stroke="none" 
	d="
M256.503601,171.664368 
	C255.717209,172.334030 255.205460,172.760757 254.648178,173.116089 
	C252.275970,174.628815 249.927475,174.841385 247.965607,172.529846 
	C246.491043,170.792480 246.451996,168.789459 248.099243,167.141724 
	C250.124939,165.115402 252.676102,164.279984 255.369171,165.545761 
	C258.049042,166.805359 258.094666,169.009628 256.503601,171.664368 
z"/>
<path fill="#6edcfa" opacity="1.000000" stroke="none" 
	d="
M162.656067,196.835922 
	C163.072311,197.933868 163.467117,198.770325 163.362534,199.538849 
	C162.892883,202.990540 160.633774,204.973999 157.354279,205.098450 
	C154.687683,205.199631 152.830490,203.166412 153.156738,200.550278 
	C153.588989,197.084259 156.204956,195.561279 159.623016,195.686722 
	C160.559479,195.721085 161.477982,196.244293 162.656067,196.835922 
z"/>
<path fill="#6edcfa" opacity="1.000000" stroke="none" 
	d="
M935.420044,50.201683 
	C935.122192,49.390991 934.880005,48.903900 934.914734,48.437405 
	C935.178650,44.890804 937.436401,43.266750 940.670532,42.758606 
	C942.425232,42.482903 944.114075,42.972988 944.799194,44.725395 
	C945.865662,47.453354 944.364136,49.608429 942.441223,51.212421 
	C940.116211,53.151794 937.642151,53.186672 935.420044,50.201683 
z"/>
<path fill="#6edcfa" opacity="1.000000" stroke="none" 
	d="
M505.166260,183.335297 
	C504.239044,183.849396 503.635010,184.191864 502.998993,184.268173 
	C500.199646,184.604019 497.602814,184.258713 496.215332,181.372894 
	C495.358734,179.591278 495.418884,177.765747 497.002258,176.363220 
	C498.859833,174.717834 500.999084,174.702377 502.973572,176.038879 
	C505.440948,177.709045 507.423492,179.717850 505.166260,183.335297 
z"/>
<path fill="#6edcfa" opacity="1.000000" stroke="none" 
	d="
M758.060791,216.064758 
	C757.230286,220.469315 754.317139,221.498306 750.733582,221.299576 
	C748.507935,221.176132 747.073730,219.853455 746.793579,217.611465 
	C746.537476,215.562225 747.632141,213.985886 749.427612,213.322021 
	C752.730225,212.100861 755.900146,212.089905 758.060791,216.064758 
z"/>
<path fill="#6edcfa" opacity="1.000000" stroke="none" 
	d="
M182.024139,154.010330 
	C180.722305,152.525162 179.304733,151.027527 179.918243,148.803452 
	C180.707840,145.941147 182.930786,144.572540 185.610107,143.947144 
	C187.429810,143.522415 188.932083,144.339172 189.550446,146.101257 
	C190.555756,148.966095 188.550247,150.713715 186.778137,152.400208 
	C185.695435,153.430618 184.278534,153.955246 182.359940,153.977051 
	C181.987640,153.983017 182.010406,154.002777 182.024139,154.010330 
z"/>
<path fill="#6edcfa" opacity="1.000000" stroke="none" 
	d="
M593.715576,190.757965 
	C594.204224,190.034088 594.483643,189.601532 594.862976,189.290985 
	C597.596008,187.053543 600.202454,188.003693 602.532837,189.888855 
	C603.953674,191.038208 604.304016,192.800766 603.111572,194.361359 
	C601.487671,196.486740 599.193787,197.666168 596.565491,196.906723 
	C593.791809,196.105270 592.559875,194.077209 593.715576,190.757965 
z"/>
<path fill="#6edcfa" opacity="1.000000" stroke="none" 
	d="
M445.521790,198.157745 
	C444.309540,198.215347 443.457184,198.332245 442.671356,198.154678 
	C440.033630,197.558655 438.088470,196.090775 437.977203,193.208725 
	C437.899658,191.200775 439.100708,189.765411 441.080170,189.255676 
	C444.122894,188.472168 446.273041,190.106018 447.699982,192.428101 
	C449.102203,194.709930 448.656281,196.876114 445.521790,198.157745 
z"/>
<path fill="#6edcfa" opacity="1.000000" stroke="none" 
	d="
M86.675926,191.307816 
	C89.493637,190.315323 91.513023,190.935425 92.016724,193.563644 
	C92.603477,196.625214 91.051437,199.039078 88.505219,200.672287 
	C86.732910,201.809082 84.887527,201.466064 83.638374,199.814728 
	C82.011505,197.664047 82.520699,195.424362 84.090240,193.437881 
	C84.689682,192.679184 85.568069,192.140915 86.675926,191.307816 
z"/>
<path fill="#6edcfa" opacity="1.000000" stroke="none" 
	d="
M602.662598,203.928925 
	C601.029297,207.966278 597.921082,207.740692 595.015747,206.895554 
	C592.813232,206.254852 591.543213,204.260788 591.935608,201.822678 
	C592.264160,199.781464 593.747253,198.725281 595.814148,198.663879 
	C599.325623,198.559570 601.991821,199.712784 602.662598,203.928925 
z"/>
<path fill="#6edcfa" opacity="1.000000" stroke="none" 
	d="
M502.426697,165.679214 
	C503.286194,165.603989 503.790009,165.549438 504.280975,165.606140 
	C507.192047,165.942352 509.571014,167.226135 509.801788,170.350006 
	C509.972260,172.657791 508.102417,173.845139 505.948395,174.196930 
	C503.341919,174.622604 500.823334,174.355209 499.462097,171.708405 
	C497.967041,168.801361 499.548340,167.019638 502.426697,165.679214 
z"/>
<path fill="#6edcfa" opacity="1.000000" stroke="none" 
	d="
M784.015198,165.472534 
	C780.457275,164.367874 778.893616,162.361893 780.650513,159.083969 
	C781.927002,156.702393 784.229980,155.692307 786.913452,155.965164 
	C788.490845,156.125565 789.765442,157.073776 790.101257,158.680115 
	C790.656372,161.336624 789.040283,163.072464 787.107117,164.467010 
	C786.349060,165.013901 785.296692,165.152847 784.015198,165.472534 
z"/>
<path fill="#6edcfa" opacity="1.000000" stroke="none" 
	d="
M689.750732,198.967545 
	C689.923279,196.682816 690.933838,195.351761 692.696899,194.955658 
	C695.593628,194.304840 698.542603,194.421432 700.081360,197.437424 
	C701.324463,199.874023 699.822327,201.678787 697.602417,202.551086 
	C694.119141,203.919800 691.027466,203.772629 689.750732,198.967545 
z"/>
<path fill="#6edcfa" opacity="1.000000" stroke="none" 
	d="
M249.141602,179.980164 
	C249.330109,178.009354 250.147781,176.694046 251.585480,176.096664 
	C254.448120,174.907166 257.169312,175.232254 259.207825,177.784012 
	C260.634399,179.569778 259.967041,181.322983 258.403290,182.593246 
	C256.179840,184.399353 253.666626,185.175034 251.166183,183.123642 
	C250.317825,182.427612 249.831512,181.290283 249.141602,179.980164 
z"/>
<path fill="#6edcfa" opacity="1.000000" stroke="none" 
	d="
M688.981262,185.013153 
	C689.622620,184.844513 690.270203,184.696457 690.904236,184.503708 
	C693.656860,183.666946 696.306030,183.663330 697.884033,186.458557 
	C698.904663,188.266602 698.025208,189.990112 696.528503,191.318161 
	C694.672302,192.965256 692.540710,194.032791 690.202332,192.644104 
	C687.360352,190.956299 687.434326,188.400330 688.900085,185.355042 
	C689.000793,184.994019 688.981262,185.013153 688.981262,185.013153 
z"/>
<path fill="#6edcfa" opacity="1.000000" stroke="none" 
	d="
M285.013000,129.005341 
	C283.861908,124.612389 285.532349,121.905113 289.951874,120.929596 
	C291.876617,120.504745 293.722412,120.838791 294.762207,122.655823 
	C295.876801,124.603584 294.759430,126.185242 293.361908,127.488022 
	C291.158051,129.542526 288.683807,130.655457 285.321533,129.103027 
	C284.979431,128.965561 285.000458,128.993378 285.013000,129.005341 
z"/>
<path fill="#6edcfa" opacity="1.000000" stroke="none" 
	d="
M393.002899,133.000061 
	C393.604431,129.125473 395.737518,127.112007 399.788513,127.488144 
	C401.821533,127.676895 403.951843,127.993729 404.315002,130.479080 
	C404.701965,133.127106 402.732574,134.371231 400.657928,135.094910 
	C398.017670,136.015915 395.423676,135.947037 393.252258,133.178131 
	C392.982208,132.964920 392.995300,132.989578 393.002899,133.000061 
z"/>
<path fill="#6edcfa" opacity="1.000000" stroke="none" 
	d="
M167.125702,206.907349 
	C169.303009,211.359299 166.475998,213.033630 163.400879,214.057068 
	C160.687363,214.960175 158.423325,213.744690 157.805862,210.795609 
	C157.182312,207.817383 158.802689,206.020859 161.676208,205.605545 
	C163.437347,205.350998 165.314331,205.367844 167.125702,206.907349 
z"/>
<path fill="#6edcfa" opacity="1.000000" stroke="none" 
	d="
M843.348511,189.096161 
	C841.014954,188.094055 839.500366,186.825989 840.140930,184.441086 
	C840.739685,182.211685 842.755188,181.618835 844.702148,181.135971 
	C846.979675,180.571121 849.016724,181.094955 850.450867,183.011169 
	C851.881836,184.922974 850.868530,186.405090 849.309326,187.651733 
	C847.681824,188.952972 845.821716,189.469833 843.348511,189.096161 
z"/>
<path fill="#6edcfa" opacity="1.000000" stroke="none" 
	d="
M932.883301,113.122345 
	C936.782959,114.068573 937.326538,116.233459 935.536133,119.118553 
	C933.612305,122.218628 929.727234,123.167252 927.411011,121.174767 
	C925.406372,119.450356 925.252686,117.511551 927.181274,115.614655 
	C928.647888,114.172112 930.520020,113.489380 932.883301,113.122345 
z"/>
<path fill="#6edcfa" opacity="1.000000" stroke="none" 
	d="
M87.962708,260.767456 
	C87.545090,261.728271 87.288696,262.350708 86.894760,262.868561 
	C85.074783,265.261017 82.706543,266.117523 79.951942,264.773468 
	C78.173134,263.905548 77.288834,262.254700 77.910248,260.223541 
	C78.678551,257.712280 80.675034,256.551849 83.117622,256.341003 
	C85.942551,256.097137 87.980606,257.118683 87.962708,260.767456 
z"/>
<path fill="#6edcfa" opacity="1.000000" stroke="none" 
	d="
M634.273560,243.486816 
	C633.765076,240.086502 635.378540,238.734726 638.158997,238.785446 
	C641.163513,238.840225 643.839966,239.916382 644.803040,243.043884 
	C645.581665,245.572647 643.775635,246.762100 641.630676,247.122330 
	C638.586975,247.633469 636.064819,246.621033 634.273560,243.486816 
z"/>
<path fill="#6edcfa" opacity="1.000000" stroke="none" 
	d="
M351.183105,158.692154 
	C354.286255,159.446472 356.274658,160.962265 355.056122,163.971756 
	C353.942413,166.722366 351.237335,167.499329 348.464417,167.110962 
	C346.070679,166.775681 344.570801,165.091248 344.764832,162.654358 
	C345.058075,158.971558 347.700134,158.337143 351.183105,158.692154 
z"/>
<path fill="#6edcfa" opacity="1.000000" stroke="none" 
	d="
M348.399963,177.616364 
	C345.214661,176.549500 343.163269,174.880157 344.313263,171.638367 
	C345.115662,169.376526 347.186554,168.358017 349.590454,168.946030 
	C351.924683,169.516998 354.161377,170.617020 354.225311,173.437637 
	C354.308014,177.083069 351.648987,177.622177 348.399963,177.616364 
z"/>
<path fill="#6edcfa" opacity="1.000000" stroke="none" 
	d="
M746.885376,230.047424 
	C743.972351,229.934372 741.964294,228.961563 741.193115,226.396118 
	C740.701111,224.759613 741.527405,223.475418 742.874634,222.613892 
	C745.074036,221.207428 747.325989,221.639099 749.472717,222.756256 
	C750.841553,223.468597 752.014404,224.612076 751.882080,226.229919 
	C751.662231,228.917465 749.350159,229.390305 746.885376,230.047424 
z"/>
<path fill="#6edcfa" opacity="1.000000" stroke="none" 
	d="
M830.015991,169.010529 
	C828.561707,165.952576 828.109863,163.002853 831.236450,160.626434 
	C832.866943,159.387146 834.686096,158.401443 836.632629,159.903122 
	C838.514893,161.355301 838.382935,163.267242 837.432434,165.240204 
	C836.086121,168.034760 834.093628,169.688843 830.385010,169.037231 
	C829.980835,168.976700 830.003296,169.000183 830.015991,169.010529 
z"/>
<path fill="#6edcfa" opacity="1.000000" stroke="none" 
	d="
M915.875366,105.111282 
	C912.542236,107.325661 910.470337,106.209457 909.602722,103.036636 
	C908.669861,99.625366 910.293701,96.965797 913.514221,96.066742 
	C916.551514,95.218842 917.524109,97.768066 917.745667,100.220116 
	C917.895081,101.873558 917.152649,103.447334 915.875366,105.111282 
z"/>
<path fill="#6edcfa" opacity="1.000000" stroke="none" 
	d="
M533.615479,233.639099 
	C532.293884,233.503937 531.257629,233.472061 530.386353,233.076645 
	C527.960754,231.975876 526.355530,230.240768 526.776611,227.323059 
	C527.017822,225.652039 528.027039,224.644638 529.708252,224.518250 
	C532.730713,224.291046 534.770935,225.985428 535.942444,228.469971 
	C536.930481,230.565430 536.788025,232.708221 533.615479,233.639099 
z"/>
<path fill="#6edcfa" opacity="1.000000" stroke="none" 
	d="
M871.219360,125.955780 
	C874.134949,125.926201 876.670227,126.535309 876.688721,129.450195 
	C876.707214,132.365067 874.135315,133.591553 871.592468,134.097122 
	C869.159973,134.580765 867.208252,133.478317 866.641907,131.030029 
	C865.884216,127.754105 868.217407,126.677895 871.219360,125.955780 
z"/>
<path fill="#6edcfa" opacity="1.000000" stroke="none" 
	d="
M637.095337,223.219940 
	C633.533752,221.792450 632.875488,219.550079 634.945190,216.884476 
	C636.927551,214.331451 639.778076,213.954132 642.509766,215.415451 
	C644.750671,216.614212 644.471802,218.677444 643.064026,220.485870 
	C641.680725,222.262878 639.819153,223.261154 637.095337,223.219940 
z"/>
<path fill="#6edcfa" opacity="1.000000" stroke="none" 
	d="
M238.905838,166.715027 
	C238.758102,165.987854 238.703583,165.661179 238.704605,165.334671 
	C238.715652,161.797623 241.136169,160.546829 244.038254,159.950378 
	C245.835419,159.581009 247.414886,160.346176 247.939163,162.148636 
	C248.684708,164.711792 247.229919,166.631042 245.347595,168.057434 
	C243.048096,169.799911 240.788940,169.731262 238.905838,166.715027 
z"/>
<path fill="#6edcfa" opacity="1.000000" stroke="none" 
	d="
M945.118774,59.101242 
	C944.347717,60.010761 943.834167,60.685501 943.168518,61.134804 
	C941.056885,62.560177 938.891602,62.861168 936.902039,60.926559 
	C935.552795,59.614544 935.304138,57.980225 936.444824,56.476425 
	C938.294861,54.037598 940.887939,52.900082 943.824341,53.898220 
	C946.140076,54.685394 946.372803,56.659389 945.118774,59.101242 
z"/>
<path fill="#6edcfa" opacity="1.000000" stroke="none" 
	d="
M10.191034,264.958008 
	C10.723130,266.205170 11.282712,267.153442 11.211195,268.051453 
	C10.968461,271.099365 10.380399,274.297241 6.406223,274.166351 
	C3.241461,274.062103 2.145996,271.493835 2.955597,268.875488 
	C3.924161,265.743073 5.405919,262.397583 10.191034,264.958008 
z"/>
<path fill="#6edcfa" opacity="1.000000" stroke="none" 
	d="
M490.821289,188.167038 
	C489.911133,187.688995 489.286163,187.411087 488.821899,186.965652 
	C487.034637,185.250717 485.896179,183.242615 487.420685,180.866226 
	C488.517303,179.156815 490.283722,178.671539 492.179474,179.587280 
	C494.747772,180.827896 496.469940,182.857834 496.072662,185.795532 
	C495.693909,188.596207 493.540283,188.872375 490.821289,188.167038 
z"/>
<path fill="#6edcfa" opacity="1.000000" stroke="none" 
	d="
M397.867920,153.364258 
	C399.280762,155.792664 399.638275,157.935913 396.934662,158.987274 
	C394.423706,159.963684 392.032440,159.214645 390.297180,157.057266 
	C388.949829,155.382141 388.340210,153.445724 390.009827,151.697830 
	C391.967560,149.648254 394.182831,150.263992 396.255646,151.666458 
	C396.789032,152.027359 397.186493,152.589142 397.867920,153.364258 
z"/>
<path fill="#6edcfa" opacity="1.000000" stroke="none" 
	d="
M443.258789,178.422943 
	C440.282562,179.465088 437.940247,179.331696 436.392365,176.701141 
	C435.509949,175.201477 435.980225,173.780304 437.087189,172.600571 
	C438.880157,170.689880 441.085907,170.326340 443.472656,171.251022 
	C447.032349,172.630127 447.073456,175.118484 443.258789,178.422943 
z"/>
<path fill="#6edcfa" opacity="1.000000" stroke="none" 
	d="
M193.014252,175.552216 
	C189.464722,175.270752 186.911041,174.041687 187.789673,170.347305 
	C188.627777,166.823227 191.746750,167.362167 194.308609,167.870789 
	C196.313110,168.268738 198.154175,169.555969 197.968109,171.889008 
	C197.763229,174.457962 195.694946,175.287384 193.014252,175.552216 
z"/>
<path fill="#6edcfa" opacity="1.000000" stroke="none" 
	d="
M96.191605,214.474091 
	C97.056328,213.649063 97.674599,213.079773 98.399048,212.731049 
	C100.801941,211.574326 103.201912,211.423737 105.276291,213.382904 
	C106.516373,214.554092 106.534065,216.073120 105.587723,217.431839 
	C104.035927,219.659866 101.804298,220.713623 99.159691,220.018402 
	C96.629700,219.353287 95.242920,217.661331 96.191605,214.474091 
z"/>
<path fill="#6edcfa" opacity="1.000000" stroke="none" 
	d="
M292.625427,145.177734 
	C295.456604,146.292343 297.604492,147.660248 297.040375,150.749496 
	C296.628357,153.005859 294.685455,153.282089 292.751953,153.287048 
	C289.721527,153.294830 287.228271,152.035278 287.051636,148.927826 
	C286.869263,145.719055 289.423462,144.919815 292.625427,145.177734 
z"/>
<path fill="#6edcfa" opacity="1.000000" stroke="none" 
	d="
M691.291992,210.683289 
	C689.958374,210.914093 688.937927,211.189133 688.019653,210.991058 
	C685.780029,210.507996 684.029663,209.311447 683.818176,206.786758 
	C683.638977,204.647598 684.823059,203.295319 686.814575,202.873535 
	C689.545288,202.295181 691.685303,203.564270 693.198364,205.706726 
	C694.696472,207.828049 693.718384,209.406631 691.291992,210.683289 
z"/>
<path fill="#6edcfa" opacity="1.000000" stroke="none" 
	d="
M743.786621,199.516022 
	C744.069946,200.184860 744.189880,200.504410 744.205566,200.829025 
	C744.366516,204.152206 742.493042,206.075897 739.607056,207.085373 
	C737.852417,207.699112 736.324524,206.999161 735.374573,205.384705 
	C734.293518,203.547516 734.738770,201.741608 736.180542,200.422226 
	C738.298462,198.484024 740.635193,196.743103 743.786621,199.516022 
z"/>
<path fill="#6edcfa" opacity="1.000000" stroke="none" 
	d="
M593.545410,210.840485 
	C592.850403,211.771530 592.370056,212.646042 591.686707,212.854431 
	C588.309998,213.884079 585.860779,212.419998 584.281982,209.506363 
	C583.242737,207.588364 583.942505,205.728317 585.811035,204.900375 
	C588.915466,203.524780 591.255188,205.117645 592.952820,207.653015 
	C593.461609,208.412872 593.443237,209.525711 593.545410,210.840485 
z"/>
<path fill="#6edcfa" opacity="1.000000" stroke="none" 
	d="
M542.755493,204.275696 
	C543.192932,208.477371 540.372742,209.351364 537.553223,209.898911 
	C535.651733,210.268188 533.862427,209.495270 533.055237,207.548065 
	C532.258301,205.625427 532.775085,203.834564 534.558350,202.768463 
	C537.461670,201.032761 540.242493,201.174698 542.755493,204.275696 
z"/>
<path fill="#6edcfa" opacity="1.000000" stroke="none" 
	d="
M144.190659,199.612030 
	C144.050125,198.449112 143.853561,197.553604 144.139130,196.855225 
	C145.205261,194.247910 147.001328,192.446030 150.046570,192.515976 
	C151.787323,192.555969 152.800919,193.710983 153.004120,195.284851 
	C153.357147,198.018997 151.860748,200.006424 149.751648,201.452911 
	C147.493301,203.001770 145.746643,201.958191 144.190659,199.612030 
z"/>
<path fill="#6edcfa" opacity="1.000000" stroke="none" 
	d="
M788.053711,176.607300 
	C790.856079,179.019012 790.801208,181.323517 787.914551,182.745590 
	C785.129639,184.117538 782.026794,184.323181 780.138977,180.996826 
	C779.366699,179.636108 779.469238,177.969864 780.725891,176.889175 
	C782.854431,175.058746 785.286133,175.393616 788.053711,176.607300 
z"/>
<path fill="#6edcfa" opacity="1.000000" stroke="none" 
	d="
M252.700958,186.181824 
	C253.873657,188.511215 254.009018,190.358658 251.652145,191.551804 
	C249.503250,192.639694 247.418976,192.480408 245.612579,190.892059 
	C244.160706,189.615417 243.216904,187.974701 244.221756,186.020340 
	C245.191483,184.134293 246.973175,183.604477 248.907913,184.158844 
	C250.153915,184.515839 251.277603,185.299683 252.700958,186.181824 
z"/>
<path fill="#6edcfa" opacity="1.000000" stroke="none" 
	d="
M856.352478,106.251045 
	C860.292236,106.181641 860.548340,108.649223 860.342407,111.290810 
	C860.161682,113.609459 859.033691,115.501274 856.658875,116.000031 
	C854.546326,116.443726 853.198853,115.053337 852.640503,113.153999 
	C851.696472,109.942093 853.052795,107.726372 856.352478,106.251045 
z"/>
<path fill="#6edcfa" opacity="1.000000" stroke="none" 
	d="
M596.898010,184.676514 
	C596.488464,185.628387 596.261169,186.284515 595.828064,186.748444 
	C594.044617,188.658783 591.945435,189.957001 589.300964,188.687988 
	C587.676086,187.908264 587.051147,186.356628 587.468933,184.535660 
	C587.971619,182.344803 589.527832,181.146179 591.609192,180.878967 
	C594.222412,180.543472 596.629700,180.901001 596.898010,184.676514 
z"/>
<path fill="#6edcfa" opacity="1.000000" stroke="none" 
	d="
M495.838989,164.458298 
	C493.297699,162.204697 493.599701,160.090500 495.669159,158.320068 
	C497.952179,156.366989 500.633057,156.328156 502.902557,158.266235 
	C505.223541,160.248352 504.583160,162.419174 502.287811,163.986954 
	C500.458710,165.236267 498.356567,165.681305 495.838989,164.458298 
z"/>
<path fill="#6edcfa" opacity="1.000000" stroke="none" 
	d="
M689.008423,184.982239 
	C688.602966,185.246628 688.155273,185.482880 687.782593,185.805740 
	C685.911499,187.426804 683.848877,188.610229 681.541260,186.915085 
	C679.918457,185.722916 679.521179,183.868698 680.550659,182.011658 
	C681.886292,179.602463 683.958923,178.278717 686.735901,178.946304 
	C689.552002,179.623291 689.398804,181.928970 689.040527,184.590622 
	C688.981262,185.013153 689.000793,184.994019 689.008423,184.982239 
z"/>
<path fill="#6edcfa" opacity="1.000000" stroke="none" 
	d="
M430.171722,199.783173 
	C429.102020,197.087738 428.998810,194.756729 431.736572,193.647003 
	C434.322327,192.598892 436.131317,194.121185 437.428436,196.260498 
	C438.532288,198.081070 439.059631,200.246582 437.238739,201.636642 
	C434.630005,203.628143 432.312897,202.182312 430.171722,199.783173 
z"/>
<path fill="#6edcfa" opacity="1.000000" stroke="none" 
	d="
M163.613602,217.578461 
	C164.696671,220.661682 162.951279,221.815811 160.854553,222.687607 
	C158.619522,223.616959 156.660614,223.071686 155.102875,221.274109 
	C154.075439,220.088486 153.550049,218.695343 154.540115,217.233124 
	C155.899734,215.225113 157.903320,214.739304 160.154587,215.230240 
	C161.441696,215.510910 162.654846,216.042221 163.613602,217.578461 
z"/>
<path fill="#6edcfa" opacity="1.000000" stroke="none" 
	d="
M347.306213,152.803497 
	C347.665741,156.924484 345.092865,159.886246 341.688171,159.860153 
	C339.993561,159.847168 338.883057,158.949707 338.191742,157.515823 
	C337.341980,155.753174 337.981750,154.167496 339.317963,153.055740 
	C341.700653,151.073318 344.349152,150.713608 347.306213,152.803497 
z"/>
<path fill="#6edcfa" opacity="1.000000" stroke="none" 
	d="
M779.775513,157.545532 
	C778.526489,160.219788 777.206970,162.420380 774.165039,161.838165 
	C772.371704,161.494919 771.485840,159.969696 771.383911,158.177277 
	C771.247253,155.774399 772.460754,154.063065 774.552551,153.047043 
	C777.729187,151.504074 779.483093,152.891296 779.775513,157.545532 
z"/>
<path fill="#6edcfa" opacity="1.000000" stroke="none" 
	d="
M339.848358,183.308151 
	C337.079254,181.163986 335.307220,178.740326 338.239258,176.178650 
	C340.763824,173.972946 343.175415,175.691483 345.064178,177.795425 
	C346.118805,178.970245 346.641327,180.408508 345.758423,181.885666 
	C344.441833,184.088364 342.485962,184.443512 339.848358,183.308151 
z"/>
</svg>